<svg width="52" height="52" viewBox="0 0 52 52" fill="none" xmlns="http://www.w3.org/2000/svg">
<g filter="url(#filter0_d_393_1405)">
<rect x="4" width="44" height="44" rx="22" fill="#FB9400" shape-rendering="crispEdges"/>
<g clip-path="url(#clip0_393_1405)">
<path d="M36.713 14.077C36.4317 13.7394 36.0796 13.468 35.6815 13.2818C35.2835 13.0957 34.8494 12.9995 34.41 13H18.242L18.2 12.649C18.114 11.9194 17.7634 11.2467 17.2145 10.7585C16.6656 10.2702 15.9566 10.0003 15.222 10H15C14.7348 10 14.4804 10.1054 14.2929 10.2929C14.1054 10.4804 14 10.7348 14 11C14 11.2652 14.1054 11.5196 14.2929 11.7071C14.4804 11.8946 14.7348 12 15 12H15.222C15.4669 12 15.7033 12.09 15.8864 12.2527C16.0694 12.4155 16.1863 12.6397 16.215 12.883L17.591 24.583C17.7339 25.7998 18.3185 26.9218 19.2339 27.736C20.1493 28.5502 21.3319 29 22.557 29H33C33.2652 29 33.5196 28.8946 33.7071 28.7071C33.8946 28.5196 34 28.2652 34 28C34 27.7348 33.8946 27.4804 33.7071 27.2929C33.5196 27.1054 33.2652 27 33 27H22.557C21.9381 26.9983 21.3348 26.8051 20.8299 26.4471C20.3251 26.089 19.9433 25.5835 19.737 25H31.657C32.8293 25.0001 33.9643 24.5882 34.8638 23.8364C35.7633 23.0846 36.37 22.0407 36.578 20.887L37.363 16.533C37.4414 16.101 37.4237 15.6571 37.3114 15.2326C37.1991 14.8082 36.9948 14.4137 36.713 14.077ZM35.4 16.178L34.614 20.532C34.4891 21.225 34.1245 21.852 33.5839 22.3032C33.0433 22.7544 32.3612 23.0011 31.657 23H19.419L18.478 15H34.41C34.5569 14.9991 34.7022 15.0306 34.8355 15.0923C34.9689 15.1539 35.087 15.2441 35.1815 15.3566C35.276 15.4691 35.3446 15.601 35.3824 15.7429C35.4201 15.8849 35.4262 16.0334 35.4 16.178Z" fill="#34312D"/>
<path d="M21 34.0007C22.1046 34.0007 23 33.1053 23 32.0007C23 30.8962 22.1046 30.0007 21 30.0007C19.8954 30.0007 19 30.8962 19 32.0007C19 33.1053 19.8954 34.0007 21 34.0007Z" fill="#34312D"/>
<path d="M31 34.0007C32.1046 34.0007 33 33.1053 33 32.0007C33 30.8962 32.1046 30.0007 31 30.0007C29.8954 30.0007 29 30.8962 29 32.0007C29 33.1053 29.8954 34.0007 31 34.0007Z" fill="#34312D"/>
</g>
</g>
<defs>
<filter id="filter0_d_393_1405" x="0" y="0" width="52" height="52" filterUnits="userSpaceOnUse" color-interpolation-filters="sRGB">
<feFlood flood-opacity="0" result="BackgroundImageFix"/>
<feColorMatrix in="SourceAlpha" type="matrix" values="0 0 0 0 0 0 0 0 0 0 0 0 0 0 0 0 0 0 127 0" result="hardAlpha"/>
<feOffset dy="4"/>
<feGaussianBlur stdDeviation="2"/>
<feComposite in2="hardAlpha" operator="out"/>
<feColorMatrix type="matrix" values="0 0 0 0 0 0 0 0 0 0 0 0 0 0 0 0 0 0 0.25 0"/>
<feBlend mode="normal" in2="BackgroundImageFix" result="effect1_dropShadow_393_1405"/>
<feBlend mode="normal" in="SourceGraphic" in2="effect1_dropShadow_393_1405" result="shape"/>
</filter>
<clipPath id="clip0_393_1405">
<rect width="24" height="24" fill="white" transform="translate(14 10)"/>
</clipPath>
</defs>
</svg>
