<svg width="44" height="44" viewBox="0 0 44 44" fill="none" xmlns="http://www.w3.org/2000/svg">
<rect width="44" height="44" rx="22" fill="#FB9400"/>
<path d="M30.494 17.9676L20.954 10.9676C20.2089 10.422 19.3272 10.0934 18.4068 10.0183C17.4863 9.94315 16.563 10.1244 15.7393 10.542C14.9156 10.9595 14.2236 11.5971 13.7401 12.3839C13.2565 13.1707 13.0004 14.0761 13 14.9996V28.9996C13.0002 29.9236 13.2563 30.8294 13.7401 31.6166C14.2238 32.4037 14.9162 33.0415 15.7404 33.459C16.5646 33.8766 17.4884 34.0576 18.4092 33.982C19.3301 33.9063 20.212 33.577 20.957 33.0306L30.497 26.0306C31.1303 25.5662 31.6452 24.9592 32.0002 24.2587C32.3552 23.5582 32.5401 22.7839 32.5401 21.9986C32.5401 21.2133 32.3552 20.4391 32.0002 19.7386C31.6452 19.0381 31.1303 18.431 30.497 17.9666L30.494 17.9676ZM29.31 24.4176L19.77 31.4176C19.323 31.7442 18.7944 31.9408 18.2426 31.9856C17.6908 32.0304 17.1374 31.9216 16.6436 31.6712C16.1498 31.4209 15.7349 31.0389 15.4448 30.5674C15.1547 30.0958 15.0008 29.5532 15 28.9996V14.9996C14.9945 14.445 15.1455 13.9 15.4358 13.4273C15.7261 12.9547 16.1438 12.5735 16.641 12.3276C17.0639 12.1125 17.5315 12.0001 18.006 11.9996C18.6419 12.002 19.2602 12.2085 19.77 12.5886L29.31 19.5886C29.6895 19.8673 29.9981 20.2314 30.2107 20.6515C30.4234 21.0716 30.5343 21.5358 30.5343 22.0066C30.5343 22.4775 30.4234 22.9417 30.2107 23.3618C29.9981 23.7818 29.6895 24.1459 29.31 24.4246V24.4176Z" fill="#34312D"/>
</svg>
