<svg width="24" height="24" viewBox="0 0 24 24" fill="none" xmlns="http://www.w3.org/2000/svg">
<path d="M10.2593 12.7098C10.1685 12.6169 10.0965 12.5063 10.0474 12.3844C9.99827 12.2625 9.97297 12.1318 9.97297 11.9998C9.97297 11.8678 9.99827 11.7371 10.0474 11.6152C10.0965 11.4934 10.1685 11.3828 10.2593 11.2898L14.7018 6.70982C14.7925 6.61685 14.8645 6.50625 14.9136 6.38439C14.9628 6.26253 14.9881 6.13183 14.9881 5.99982C14.9881 5.8678 14.9628 5.7371 14.9136 5.61524C14.8645 5.49338 14.7925 5.38278 14.7018 5.28982C14.5204 5.10356 14.2751 4.99902 14.0194 4.99902C13.7637 4.99902 13.5184 5.10356 13.3371 5.28982L8.89457 9.87982C8.35083 10.4423 8.04541 11.2048 8.04541 11.9998C8.04541 12.7948 8.35083 13.5573 8.89457 14.1198L13.3371 18.7098C13.5173 18.8946 13.7607 18.9987 14.0146 18.9998C14.142 19.0006 14.2682 18.9754 14.3861 18.9256C14.5041 18.8758 14.6113 18.8025 14.7018 18.7098C14.7925 18.6169 14.8645 18.5063 14.9136 18.3844C14.9628 18.2625 14.9881 18.1318 14.9881 17.9998C14.9881 17.8678 14.9628 17.7371 14.9136 17.6152C14.8645 17.4934 14.7925 17.3828 14.7018 17.2898L10.2593 12.7098Z" fill="white"/>
</svg>
