<svg width="24" height="24" viewBox="0 0 24 24" fill="none" xmlns="http://www.w3.org/2000/svg">
<rect x="0.5" y="0.5" width="23" height="23" rx="3.5" fill="white" stroke="#C4CFE3"/>
<path d="M6.01542 17.3512H8.23889V11.9514L5.0625 9.56909V16.3983C5.0625 16.9256 5.48972 17.3512 6.01542 17.3512Z" fill="#4285F4"/>
<path d="M15.8623 17.3512H18.0858C18.6131 17.3512 19.0387 16.924 19.0387 16.3983V9.56909L15.8623 11.9514" fill="#34A853"/>
<path d="M15.8623 7.82208V11.9514L19.0387 9.56909V8.29853C19.0387 7.12009 17.6935 6.44829 16.7517 7.15503" fill="#FBBC04"/>
<path d="M8.23877 11.9513V7.82202L12.0504 10.6808L15.8621 7.82202V11.9513L12.0504 14.8101" fill="#EA4335"/>
<path d="M5.0625 8.29853V9.56909L8.23889 11.9514V7.82208L7.3495 7.15503C6.40611 6.44829 5.0625 7.12009 5.0625 8.29853Z" fill="#C5221F"/>
</svg>
