<svg width="24" height="24" viewBox="0 0 24 24" fill="none" xmlns="http://www.w3.org/2000/svg">
<path d="M14.9055 9.87982L10.463 5.28982C10.2817 5.10356 10.0363 4.99902 9.78065 4.99902C9.52495 4.99902 9.27965 5.10356 9.0983 5.28982C9.00759 5.38278 8.93558 5.49338 8.88645 5.61524C8.83731 5.7371 8.81201 5.8678 8.81201 5.99982C8.81201 6.13183 8.83731 6.26253 8.88645 6.38439C8.93558 6.50625 9.00759 6.61685 9.0983 6.70982L13.5505 11.2898C13.6412 11.3828 13.7132 11.4934 13.7623 11.6152C13.8115 11.7371 13.8368 11.8678 13.8368 11.9998C13.8368 12.1318 13.8115 12.2625 13.7623 12.3844C13.7132 12.5063 13.6412 12.6169 13.5505 12.7098L9.0983 17.2898C8.91605 17.4768 8.81315 17.7309 8.81225 17.9963C8.81134 18.2616 8.9125 18.5165 9.09347 18.7048C9.27443 18.8931 9.52039 18.9994 9.77723 19.0004C10.0341 19.0013 10.2807 18.8968 10.463 18.7098L14.9055 14.1198C15.4492 13.5573 15.7547 12.7948 15.7547 11.9998C15.7547 11.2048 15.4492 10.4423 14.9055 9.87982Z" fill="white"/>
</svg>
